<svg xmlns="http://www.w3.org/2000/svg" xmlns:xlink="http://www.w3.org/1999/xlink" version="1.1" x="0px" y="0px" viewBox="0 0 100 100" enable-background="new 0 0 100 100" xml:space="preserve"><path d="M69,41.5c0-2.9-2.2-5.2-5-5.5v-6.4c0-7.7-6.3-14-14-14s-14,6.3-14,14V36c-2.8,0.3-5,2.6-5,5.5v17.3c0,3,2.5,5.5,5.5,5.5  h26.9c3,0,5.5-2.5,5.5-5.5V41.5z M50,19.9c5.4,0,9.8,4.4,9.8,9.8V36H40.2v-6.4C40.2,24.2,44.6,19.9,50,19.9z M64.7,58.8  c0,0.7-0.6,1.3-1.3,1.3H36.5c-0.7,0-1.3-0.6-1.3-1.3V41.5c0-0.7,0.6-1.3,1.3-1.3h26.9c0.7,0,1.3,0.6,1.3,1.3V58.8z M53.3,48.1  c0,1.1-0.5,2-1.3,2.7c-0.1,0.1-0.1,0.1-0.1,0.2c0,1.2,0,2.4,0,3.7c0,0.7-0.3,1.4-0.9,1.7c-0.3,0.2-0.6,0.2-0.9,0.2  c-1,0-1.9-0.8-1.9-1.9c0-1.2,0-2.4,0-3.7c0-0.1,0-0.1-0.1-0.2c-1.3-0.9-1.7-2.6-1.1-4c0.5-1.2,1.7-2,3-2h0c0.2,0,0.4,0,0.6,0.1  C52.2,45.2,53.3,46.5,53.3,48.1z M25.6,48.8h-9.2c-0.9-2.6-3.4-4.6-6.3-4.6c-3.7,0-6.7,3-6.7,6.7c0,3.7,3,6.7,6.7,6.7  c2.9,0,5.4-1.9,6.3-4.6h9.2c1.2,0,2.1-1,2.1-2.1C27.7,49.7,26.7,48.8,25.6,48.8z M10,53.3c-1.3,0-2.4-1.1-2.4-2.4  c0-1.3,1.1-2.4,2.4-2.4s2.4,1.1,2.4,2.4C12.4,52.2,11.3,53.3,10,53.3z M25.6,38.7H15.1c-1.7,0-3-1.3-3-3v-5.3  c2.6-0.9,4.6-3.4,4.6-6.3c0-3.7-3-6.7-6.7-6.7s-6.7,3-6.7,6.7c0,2.9,1.9,5.4,4.6,6.3v5.3c0,4,3.2,7.2,7.2,7.2h10.4  c1.2,0,2.1-1,2.1-2.1C27.7,39.6,26.7,38.7,25.6,38.7z M10,21.6c1.3,0,2.4,1.1,2.4,2.4s-1.1,2.4-2.4,2.4s-2.4-1.1-2.4-2.4  S8.7,21.6,10,21.6z M15.1,63.1h10.4c1.2,0,2.1-1,2.1-2.1c0-1.2-1-2.1-2.1-2.1H15.1c-4,0-7.2,3.2-7.2,7.2v5.3  c-2.6,0.9-4.6,3.4-4.6,6.3c0,3.7,3,6.7,6.7,6.7s6.7-3,6.7-6.7c0-2.9-1.9-5.4-4.6-6.3v-5.3C12.1,64.4,13.5,63.1,15.1,63.1z M10,80.1  c-1.3,0-2.4-1.1-2.4-2.4s1.1-2.4,2.4-2.4s2.4,1.1,2.4,2.4S11.3,80.1,10,80.1z M90,44.2c-2.9,0-5.4,1.9-6.3,4.6h-9.2  c-1.2,0-2.1,1-2.1,2.1c0,1.2,1,2.1,2.1,2.1h9.2c0.9,2.6,3.4,4.6,6.3,4.6c3.7,0,6.7-3,6.7-6.7C96.7,47.2,93.7,44.2,90,44.2z M90,53.3  c-1.3,0-2.4-1.1-2.4-2.4c0-1.3,1.1-2.4,2.4-2.4s2.4,1.1,2.4,2.4C92.4,52.2,91.3,53.3,90,53.3z M83.3,77.7c0,3.7,3,6.7,6.7,6.7  s6.7-3,6.7-6.7c0-2.9-1.9-5.4-4.6-6.3v-5.3c0-4-3.2-7.2-7.2-7.2H74.4c-1.2,0-2.1,1-2.1,2.1c0,1.2,1,2.1,2.1,2.1h10.4  c1.7,0,3,1.3,3,3v5.3C85.2,72.3,83.3,74.8,83.3,77.7z M90,80.1c-1.3,0-2.4-1.1-2.4-2.4s1.1-2.4,2.4-2.4s2.4,1.1,2.4,2.4  S91.3,80.1,90,80.1z M90,17.4c-3.7,0-6.7,3-6.7,6.7c0,2.9,1.9,5.4,4.6,6.3v5.3c0,1.7-1.3,3-3,3H74.4c-1.2,0-2.1,1-2.1,2.1  c0,1.2,1,2.1,2.1,2.1h10.4c4,0,7.2-3.2,7.2-7.2v-5.3c2.6-0.9,4.6-3.4,4.6-6.3C96.7,20.4,93.7,17.4,90,17.4z M90,26.5  c-1.3,0-2.4-1.1-2.4-2.4s1.1-2.4,2.4-2.4s2.4,1.1,2.4,2.4S91.3,26.5,90,26.5z"/></svg>
